<svg xmlns="http://www.w3.org/2000/svg" viewBox="0 0 300 400">
<defs><linearGradient id="bg" x1="0" y1="0" x2="0" y2="1"><stop offset="0" stop-color="#eff3ef"/><stop offset="1" stop-color="#dbe6dc"/></linearGradient></defs>
<rect width="300" height="400" fill="url(#bg)"/>
<ellipse cx="150" cy="362" rx="98" ry="8" fill="#000" opacity=".10"/>
<g><path d="M84 232 Q84 92 150 92 Q216 92 216 232 Z" fill="#2c3e6b" stroke="#1e2b4a" stroke-width="3"/><rect x="76" y="208" width="148" height="50" rx="10" fill="#273760" stroke="#1e2b4a" stroke-width="3"/><line x1="96" y1="205" x2="96" y2="255" stroke="#1e2b4a" stroke-width="2" opacity=".6"/><line x1="106" y1="205" x2="106" y2="255" stroke="#1e2b4a" stroke-width="2" opacity=".6"/><line x1="116" y1="205" x2="116" y2="255" stroke="#1e2b4a" stroke-width="2" opacity=".6"/><line x1="126" y1="205" x2="126" y2="255" stroke="#1e2b4a" stroke-width="2" opacity=".6"/><line x1="136" y1="205" x2="136" y2="255" stroke="#1e2b4a" stroke-width="2" opacity=".6"/><line x1="146" y1="205" x2="146" y2="255" stroke="#1e2b4a" stroke-width="2" opacity=".6"/><line x1="156" y1="205" x2="156" y2="255" stroke="#1e2b4a" stroke-width="2" opacity=".6"/><line x1="166" y1="205" x2="166" y2="255" stroke="#1e2b4a" stroke-width="2" opacity=".6"/><line x1="176" y1="205" x2="176" y2="255" stroke="#1e2b4a" stroke-width="2" opacity=".6"/><line x1="186" y1="205" x2="186" y2="255" stroke="#1e2b4a" stroke-width="2" opacity=".6"/><line x1="196" y1="205" x2="196" y2="255" stroke="#1e2b4a" stroke-width="2" opacity=".6"/><line x1="206" y1="205" x2="206" y2="255" stroke="#1e2b4a" stroke-width="2" opacity=".6"/><circle cx="150" cy="82" r="24" fill="#374d85" stroke="#1e2b4a" stroke-width="3"/></g>
<text x="150" y="390" text-anchor="middle" font-family="'Inter','Noto Sans JP','Yu Gothic UI',Meiryo,sans-serif" font-size="15" font-weight="700" fill="#4a4a4a">Knit Beanie</text>
</svg>