<svg xmlns="http://www.w3.org/2000/svg" viewBox="0 0 800 450">
<defs><linearGradient id="bg" x1="0" y1="0" x2="1" y2="1"><stop offset="0" stop-color="#f6e3c8"/><stop offset="1" stop-color="#e2b98a"/></linearGradient></defs>
<rect width="800" height="450" fill="url(#bg)"/>
<ellipse cx="40" cy="30" rx="14" ry="7" fill="#c0561b" opacity=".85" transform="rotate(0 40 30)"/><ellipse cx="137" cy="83" rx="21" ry="10" fill="#d9822b" opacity=".85" transform="rotate(47 137 83)"/><ellipse cx="234" cy="136" rx="16" ry="8" fill="#a63d2f" opacity=".85" transform="rotate(94 234 136)"/><ellipse cx="331" cy="189" rx="23" ry="12" fill="#e0a63a" opacity=".85" transform="rotate(141 331 189)"/><ellipse cx="428" cy="242" rx="18" ry="9" fill="#7a8450" opacity=".85" transform="rotate(8 428 242)"/><ellipse cx="525" cy="295" rx="25" ry="12" fill="#c0561b" opacity=".85" transform="rotate(55 525 295)"/><ellipse cx="622" cy="348" rx="20" ry="10" fill="#d9822b" opacity=".85" transform="rotate(102 622 348)"/><ellipse cx="719" cy="401" rx="15" ry="8" fill="#a63d2f" opacity=".85" transform="rotate(149 719 401)"/><ellipse cx="96" cy="64" rx="22" ry="11" fill="#e0a63a" opacity=".85" transform="rotate(16 96 64)"/><ellipse cx="193" cy="117" rx="17" ry="8" fill="#7a8450" opacity=".85" transform="rotate(63 193 117)"/><ellipse cx="290" cy="170" rx="24" ry="12" fill="#c0561b" opacity=".85" transform="rotate(110 290 170)"/><ellipse cx="387" cy="223" rx="19" ry="10" fill="#d9822b" opacity=".85" transform="rotate(157 387 223)"/><ellipse cx="484" cy="276" rx="14" ry="7" fill="#a63d2f" opacity=".85" transform="rotate(24 484 276)"/><ellipse cx="581" cy="329" rx="21" ry="10" fill="#e0a63a" opacity=".85" transform="rotate(71 581 329)"/><ellipse cx="678" cy="382" rx="16" ry="8" fill="#7a8450" opacity=".85" transform="rotate(118 678 382)"/><ellipse cx="55" cy="45" rx="23" ry="12" fill="#c0561b" opacity=".85" transform="rotate(165 55 45)"/><ellipse cx="152" cy="98" rx="18" ry="9" fill="#d9822b" opacity=".85" transform="rotate(32 152 98)"/><ellipse cx="249" cy="151" rx="25" ry="12" fill="#a63d2f" opacity=".85" transform="rotate(79 249 151)"/><ellipse cx="346" cy="204" rx="20" ry="10" fill="#e0a63a" opacity=".85" transform="rotate(126 346 204)"/><ellipse cx="443" cy="257" rx="15" ry="8" fill="#7a8450" opacity=".85" transform="rotate(173 443 257)"/><ellipse cx="540" cy="310" rx="22" ry="11" fill="#c0561b" opacity=".85" transform="rotate(40 540 310)"/><ellipse cx="637" cy="363" rx="17" ry="8" fill="#d9822b" opacity=".85" transform="rotate(87 637 363)"/>
<g opacity=".97"><g transform="translate(67.33333333333334 80) scale(0.44)"><path d="M105 82 Q150 106 195 82 L255 112 L275 232 L238 242 L228 182 L228 350 L72 350 L72 182 L62 242 L25 232 L45 112 Z" fill="#c19a6b" stroke="#a47945" stroke-width="3" stroke-linejoin="round"/><path d="M150 96 L120 84 L100 150 L150 230 Z" fill="#cbab84" stroke="#9e7442" stroke-width="2"/><path d="M150 96 L180 84 L200 150 L150 230 Z" fill="#cbab84" stroke="#9e7442" stroke-width="2"/><line x1="150" y1="230" x2="150" y2="350" stroke="#9e7442" stroke-width="2"/><circle cx="142" cy="250" r="4.5" fill="#745530"/><circle cx="142" cy="285" r="4.5" fill="#745530"/><circle cx="142" cy="320" r="4.5" fill="#745530"/></g></g><g opacity=".97"><g transform="translate(334.0 80) scale(0.44)"><path d="M105 82 Q150 106 195 82 L255 112 L275 232 L238 242 L228 182 L228 320 L72 320 L72 182 L62 242 L25 232 L45 112 Z" fill="#8c2f39" stroke="#6d242c" stroke-width="3" stroke-linejoin="round"/><path d="M118 84 Q150 116 182 84" fill="none" stroke="#612027" stroke-width="7" stroke-linecap="round"/><rect x="72" y="306" width="156" height="14" fill="#802b34"/><line x1="80" y1="306" x2="80" y2="320" stroke="#772730" stroke-width="2"/><line x1="90" y1="306" x2="90" y2="320" stroke="#772730" stroke-width="2"/><line x1="100" y1="306" x2="100" y2="320" stroke="#772730" stroke-width="2"/><line x1="110" y1="306" x2="110" y2="320" stroke="#772730" stroke-width="2"/><line x1="120" y1="306" x2="120" y2="320" stroke="#772730" stroke-width="2"/><line x1="130" y1="306" x2="130" y2="320" stroke="#772730" stroke-width="2"/><line x1="140" y1="306" x2="140" y2="320" stroke="#772730" stroke-width="2"/><line x1="150" y1="306" x2="150" y2="320" stroke="#772730" stroke-width="2"/><line x1="160" y1="306" x2="160" y2="320" stroke="#772730" stroke-width="2"/><line x1="170" y1="306" x2="170" y2="320" stroke="#772730" stroke-width="2"/><line x1="180" y1="306" x2="180" y2="320" stroke="#772730" stroke-width="2"/><line x1="190" y1="306" x2="190" y2="320" stroke="#772730" stroke-width="2"/><line x1="200" y1="306" x2="200" y2="320" stroke="#772730" stroke-width="2"/><line x1="210" y1="306" x2="210" y2="320" stroke="#772730" stroke-width="2"/><line x1="220" y1="306" x2="220" y2="320" stroke="#772730" stroke-width="2"/><rect x="25" y="228" width="36" height="14" fill="#802b34" transform="rotate(-9 25 228)"/></g></g><g opacity=".97"><g transform="translate(600.6666666666666 80) scale(0.44)"><path d="M92 60 H208 L222 350 H162 L150 150 L138 350 H78 Z" fill="#4a4a52" stroke="#35353b" stroke-width="3" stroke-linejoin="round"/><rect x="92" y="60" width="116" height="16" fill="#3e3e45" stroke="#35353b" stroke-width="2"/><line x1="150" y1="76" x2="150" y2="150" stroke="#35353b" stroke-width="2"/></g></g>
</svg>