<svg xmlns="http://www.w3.org/2000/svg" viewBox="0 0 800 450">
<defs><linearGradient id="bg" x1="0" y1="0" x2="1" y2="1"><stop offset="0" stop-color="#ece3d6"/><stop offset="1" stop-color="#cbb79a"/></linearGradient></defs>
<rect width="800" height="450" fill="url(#bg)"/>

<g opacity=".97"><g transform="translate(325.0 80) scale(0.5)"><path d="M105 82 Q150 106 195 82 L255 112 L275 232 L238 242 L228 182 L228 350 L72 350 L72 182 L62 242 L25 232 L45 112 Z" fill="#c19a6b" stroke="#a47945" stroke-width="3" stroke-linejoin="round"/><path d="M150 96 L120 84 L100 150 L150 230 Z" fill="#cbab84" stroke="#9e7442" stroke-width="2"/><path d="M150 96 L180 84 L200 150 L150 230 Z" fill="#cbab84" stroke="#9e7442" stroke-width="2"/><line x1="150" y1="230" x2="150" y2="350" stroke="#9e7442" stroke-width="2"/><circle cx="142" cy="250" r="4.5" fill="#745530"/><circle cx="142" cy="285" r="4.5" fill="#745530"/><circle cx="142" cy="320" r="4.5" fill="#745530"/></g></g>
</svg>