<svg xmlns="http://www.w3.org/2000/svg" viewBox="0 0 800 450">
<defs><linearGradient id="bg" x1="0" y1="0" x2="1" y2="1"><stop offset="0" stop-color="#f3dfe3"/><stop offset="1" stop-color="#d9a5b3"/></linearGradient></defs>
<rect width="800" height="450" fill="url(#bg)"/>

<g opacity=".97"><g transform="translate(128.0 80) scale(0.48)"><g transform="translate(46 12) scale(.62)"><path d="M105 82 Q150 106 195 82 L255 112 L275 232 L238 242 L228 182 L228 320 L72 320 L72 182 L62 242 L25 232 L45 112 Z" fill="#d9a5b3" stroke="#c06981" stroke-width="3" stroke-linejoin="round"/><path d="M118 84 Q150 116 182 84" fill="none" stroke="#b6546e" stroke-width="7" stroke-linecap="round"/><rect x="72" y="306" width="156" height="14" fill="#cf8fa0"/><line x1="80" y1="306" x2="80" y2="320" stroke="#c77c90" stroke-width="2"/><line x1="90" y1="306" x2="90" y2="320" stroke="#c77c90" stroke-width="2"/><line x1="100" y1="306" x2="100" y2="320" stroke="#c77c90" stroke-width="2"/><line x1="110" y1="306" x2="110" y2="320" stroke="#c77c90" stroke-width="2"/><line x1="120" y1="306" x2="120" y2="320" stroke="#c77c90" stroke-width="2"/><line x1="130" y1="306" x2="130" y2="320" stroke="#c77c90" stroke-width="2"/><line x1="140" y1="306" x2="140" y2="320" stroke="#c77c90" stroke-width="2"/><line x1="150" y1="306" x2="150" y2="320" stroke="#c77c90" stroke-width="2"/><line x1="160" y1="306" x2="160" y2="320" stroke="#c77c90" stroke-width="2"/><line x1="170" y1="306" x2="170" y2="320" stroke="#c77c90" stroke-width="2"/><line x1="180" y1="306" x2="180" y2="320" stroke="#c77c90" stroke-width="2"/><line x1="190" y1="306" x2="190" y2="320" stroke="#c77c90" stroke-width="2"/><line x1="200" y1="306" x2="200" y2="320" stroke="#c77c90" stroke-width="2"/><line x1="210" y1="306" x2="210" y2="320" stroke="#c77c90" stroke-width="2"/><line x1="220" y1="306" x2="220" y2="320" stroke="#c77c90" stroke-width="2"/></g><g transform="translate(86 176) scale(.5)"><path d="M92 60 H208 L222 350 H162 L150 150 L138 350 H78 Z" fill="#e4bfc9" stroke="#c16c83" stroke-width="3" stroke-linejoin="round"/><rect x="92" y="60" width="116" height="16" fill="#d192a3" stroke="#c16c83" stroke-width="2"/><line x1="150" y1="76" x2="150" y2="150" stroke="#c16c83" stroke-width="2"/></g><path d="M110 60 l6 -10 6 10 6 -10 6 10" stroke="#bc617a" stroke-width="2" fill="none"/></g></g><g opacity=".97"><g transform="translate(528.0 80) scale(0.48)"><rect x="50" y="250" width="200" height="64" rx="10" fill="#a9563c" stroke="#763c29" stroke-width="3"/><line x1="70" y1="250" x2="70" y2="314" stroke="#763c29" stroke-width="2" opacity=".35"/><line x1="92" y1="250" x2="92" y2="314" stroke="#763c29" stroke-width="2" opacity=".35"/><line x1="114" y1="250" x2="114" y2="314" stroke="#763c29" stroke-width="2" opacity=".35"/><line x1="136" y1="250" x2="136" y2="314" stroke="#763c29" stroke-width="2" opacity=".35"/><line x1="158" y1="250" x2="158" y2="314" stroke="#763c29" stroke-width="2" opacity=".35"/><line x1="180" y1="250" x2="180" y2="314" stroke="#763c29" stroke-width="2" opacity=".35"/><line x1="202" y1="250" x2="202" y2="314" stroke="#763c29" stroke-width="2" opacity=".35"/><line x1="224" y1="250" x2="224" y2="314" stroke="#763c29" stroke-width="2" opacity=".35"/><line x1="50" y1="282" x2="250" y2="282" stroke="#763c29" stroke-width="2" opacity=".35"/><rect x="56" y="190" width="188" height="64" rx="10" fill="#be6448" stroke="#763c29" stroke-width="3"/><line x1="76" y1="190" x2="76" y2="254" stroke="#763c29" stroke-width="2" opacity=".35"/><line x1="98" y1="190" x2="98" y2="254" stroke="#763c29" stroke-width="2" opacity=".35"/><line x1="120" y1="190" x2="120" y2="254" stroke="#763c29" stroke-width="2" opacity=".35"/><line x1="142" y1="190" x2="142" y2="254" stroke="#763c29" stroke-width="2" opacity=".35"/><line x1="164" y1="190" x2="164" y2="254" stroke="#763c29" stroke-width="2" opacity=".35"/><line x1="186" y1="190" x2="186" y2="254" stroke="#763c29" stroke-width="2" opacity=".35"/><line x1="208" y1="190" x2="208" y2="254" stroke="#763c29" stroke-width="2" opacity=".35"/><line x1="230" y1="190" x2="230" y2="254" stroke="#763c29" stroke-width="2" opacity=".35"/><line x1="56" y1="222" x2="244" y2="222" stroke="#763c29" stroke-width="2" opacity=".35"/><rect x="62" y="130" width="176" height="64" rx="10" fill="#a9563c" stroke="#763c29" stroke-width="3"/><line x1="82" y1="130" x2="82" y2="194" stroke="#763c29" stroke-width="2" opacity=".35"/><line x1="104" y1="130" x2="104" y2="194" stroke="#763c29" stroke-width="2" opacity=".35"/><line x1="126" y1="130" x2="126" y2="194" stroke="#763c29" stroke-width="2" opacity=".35"/><line x1="148" y1="130" x2="148" y2="194" stroke="#763c29" stroke-width="2" opacity=".35"/><line x1="170" y1="130" x2="170" y2="194" stroke="#763c29" stroke-width="2" opacity=".35"/><line x1="192" y1="130" x2="192" y2="194" stroke="#763c29" stroke-width="2" opacity=".35"/><line x1="214" y1="130" x2="214" y2="194" stroke="#763c29" stroke-width="2" opacity=".35"/><line x1="62" y1="162" x2="238" y2="162" stroke="#763c29" stroke-width="2" opacity=".35"/></g></g>
</svg>