<svg xmlns="http://www.w3.org/2000/svg" viewBox="0 0 800 450">
<defs><linearGradient id="bg" x1="0" y1="0" x2="1" y2="1"><stop offset="0" stop-color="#dfe8f0"/><stop offset="1" stop-color="#9fb6cc"/></linearGradient></defs>
<rect width="800" height="450" fill="url(#bg)"/>

<g opacity=".97"><g transform="translate(31.33333333333333 24) scale(0.68)"><path d="M92 60 H208 L222 350 H162 L150 150 L138 350 H78 Z" fill="#3d5a80" stroke="#2b405c" stroke-width="3" stroke-linejoin="round"/><rect x="92" y="60" width="116" height="16" fill="#334c6c" stroke="#2b405c" stroke-width="2"/><line x1="150" y1="76" x2="150" y2="150" stroke="#2b405c" stroke-width="2"/><path d="M100 84 Q120 110 138 96" fill="none" stroke="#e8c98a" stroke-width="2" stroke-dasharray="4 3"/><path d="M200 84 Q180 110 162 96" fill="none" stroke="#e8c98a" stroke-width="2" stroke-dasharray="4 3"/></g></g><g opacity=".97"><g transform="translate(298.0 24) scale(0.68)"><path d="M55 255 Q55 200 108 206 L150 232 Q205 240 245 260 Q270 272 266 302 V318 H55 Z" fill="#f2f2f2" stroke="#919191" stroke-width="3"/><rect x="52" y="304" width="220" height="24" rx="10" fill="#ffffff" stroke="#919191" stroke-width="2"/><path d="M110 212 l30 22 M128 210 l30 24 M146 214 l30 22" stroke="#fff" stroke-width="4" stroke-linecap="round"/><path d="M62 270 Q120 280 150 250" fill="none" stroke="#e35d5d" stroke-width="6" stroke-linecap="round"/></g></g><g opacity=".97"><g transform="translate(564.6666666666666 24) scale(0.68)"><path d="M100 96 Q100 36 150 36 Q200 36 200 96 Q150 126 100 96 Z" fill="#787d85" stroke="#62666d" stroke-width="3"/><path d="M105 82 Q150 106 195 82 L255 112 L275 232 L238 242 L228 182 L228 320 L72 320 L72 182 L62 242 L25 232 L45 112 Z" fill="#8b8f96" stroke="#6b6f76" stroke-width="3" stroke-linejoin="round"/><rect x="72" y="306" width="156" height="14" fill="#7e838b"/><line x1="80" y1="306" x2="80" y2="320" stroke="#747980" stroke-width="2"/><line x1="90" y1="306" x2="90" y2="320" stroke="#747980" stroke-width="2"/><line x1="100" y1="306" x2="100" y2="320" stroke="#747980" stroke-width="2"/><line x1="110" y1="306" x2="110" y2="320" stroke="#747980" stroke-width="2"/><line x1="120" y1="306" x2="120" y2="320" stroke="#747980" stroke-width="2"/><line x1="130" y1="306" x2="130" y2="320" stroke="#747980" stroke-width="2"/><line x1="140" y1="306" x2="140" y2="320" stroke="#747980" stroke-width="2"/><line x1="150" y1="306" x2="150" y2="320" stroke="#747980" stroke-width="2"/><line x1="160" y1="306" x2="160" y2="320" stroke="#747980" stroke-width="2"/><line x1="170" y1="306" x2="170" y2="320" stroke="#747980" stroke-width="2"/><line x1="180" y1="306" x2="180" y2="320" stroke="#747980" stroke-width="2"/><line x1="190" y1="306" x2="190" y2="320" stroke="#747980" stroke-width="2"/><line x1="200" y1="306" x2="200" y2="320" stroke="#747980" stroke-width="2"/><line x1="210" y1="306" x2="210" y2="320" stroke="#747980" stroke-width="2"/><line x1="220" y1="306" x2="220" y2="320" stroke="#747980" stroke-width="2"/><path d="M105 88 Q150 124 195 88" fill="none" stroke="#62666d" stroke-width="3"/><path d="M96 240 H204 L214 290 H86 Z" fill="#83878f" stroke="#62666d" stroke-width="2"/><line x1="135" y1="112" x2="135" y2="160" stroke="#fff" stroke-width="3" opacity=".8"/><line x1="165" y1="112" x2="165" y2="160" stroke="#fff" stroke-width="3" opacity=".8"/></g></g>
<rect x="0" y="350" width="800" height="100" fill="#ffffff" opacity=".38"/><text x="40" y="382" font-family="'Noto Sans JP','Yu Gothic UI',Meiryo,sans-serif" font-size="15" letter-spacing="4" font-weight="700" fill="#2b2b2b" opacity=".9">WEEKEND CASUAL</text><text x="40" y="426" font-family="'Noto Sans JP','Yu Gothic UI',Meiryo,sans-serif" font-size="34" font-weight="900" fill="#2b2b2b">週末のカジュアルスナップ</text><text x="765" y="436" text-anchor="end" font-family="'Noto Sans JP','Yu Gothic UI',Meiryo,sans-serif" font-size="14" fill="#2b2b2b" opacity=".7">H17</text>
</svg>